<?xml version="1.0" encoding="utf-8"?>
<!-- Generator: Adobe Illustrator 24.2.1, SVG Export Plug-In . SVG Version: 6.00 Build 0)  -->
<svg version="1.1" id="레이어_1" xmlns="http://www.w3.org/2000/svg" xmlns:xlink="http://www.w3.org/1999/xlink" x="0px"
	 y="0px" viewBox="0 0 32 32" style="enable-background:new 0 0 32 32;" xml:space="preserve">
<style type="text/css">
	.st0{fill:#DE2910;}
	.st1{fill:#FFFFFF;}
</style>
<circle class="st0" cx="16" cy="16" r="16"/>
<g id="petal">
	<path class="st1" d="M16,16c-3.7-1.6-2.1-6.5,1.5-6.2c-0.7,0.4-0.8,1.1-0.4,1.7c0.5,0.7,0,1.9-0.7,2.2C15.4,14.1,15.2,15.4,16,16
		L16,16z"/>
	<path class="st0" d="M15.8,12.5l-0.2,0.3l-0.1-0.4l-0.4-0.1l0.3-0.2l0-0.4l0.3,0.3l0.4-0.1l-0.2,0.4l0.2,0.3L15.8,12.5z"/>
	<path class="st0" d="M16,16c-0.5-0.2-0.8-0.7-1-1.3c-0.2-0.7-0.1-1.4,0.3-2l-0.1,0c-0.4,0.6-0.5,1.3-0.3,2
		C15.1,15.3,15.5,15.8,16,16L16,16z"/>
</g>
<g transform="rotate(72 450,300)">
	<g id="petal_1_">
		<path class="st1" d="M16,16c0.3-4,5.5-4,6.4-0.5c-0.6-0.6-1.3-0.5-1.8,0.1c-0.5,0.7-1.8,0.5-2.3,0C17.6,14.8,16.4,15,16,16L16,16z
			"/>
		<path class="st0" d="M19.3,14.7l-0.4-0.1l0.3-0.2l0-0.4l0.3,0.3l0.4-0.1l-0.2,0.4l0.2,0.3l-0.4,0l-0.2,0.3L19.3,14.7z"/>
		<path class="st0" d="M16,16c0.1-0.5,0.4-1,0.9-1.3c0.6-0.4,1.3-0.5,1.9-0.3l0-0.1c-0.7-0.2-1.4,0-2,0.3C16.4,14.9,16,15.5,16,16
			L16,16z"/>
	</g>
</g>
<g transform="rotate(144 450,300)">
	<g id="petal_2_">
		<path class="st1" d="M16,16c4-0.9,5.5,4,2.4,5.9c0.4-0.7,0-1.4-0.7-1.6C17,20,16.7,18.7,17,18.1C17.6,17.2,17,16,16,16L16,16z"/>
		<path class="st0" d="M18.2,18.7l0-0.4l0.3,0.3l0.4-0.1l-0.2,0.4l0.2,0.3l-0.4,0l-0.2,0.3L18.3,19l-0.4-0.1L18.2,18.7z"/>
		<path class="st0" d="M16,16c0.5-0.1,1.1,0.1,1.6,0.5c0.5,0.4,0.9,1.1,0.9,1.8l0.1,0c0-0.7-0.4-1.4-1-1.8
			C17.1,16.1,16.5,15.9,16,16L16,16z"/>
	</g>
</g>
<g transform="rotate(216 450,300)">
	<g id="petal_3_">
		<path class="st1" d="M16,16c2.1,3.5-2.1,6.4-4.9,4.1c0.8,0.1,1.3-0.4,1.3-1.1c0-0.9,1.1-1.5,1.8-1.4C15.4,17.9,16.3,17,16,16
			L16,16z"/>
		<path class="st0" d="M14.1,19l0.4-0.1l-0.2,0.4l0.2,0.3l-0.4,0l-0.2,0.3l-0.1-0.4l-0.4-0.1l0.3-0.2l0-0.4L14.1,19z"/>
		<path class="st0" d="M16,16c0.2,0.5,0.2,1.1,0,1.6c-0.2,0.6-0.7,1.2-1.4,1.4l0,0.1c0.7-0.3,1.2-0.8,1.4-1.5
			C16.3,17.1,16.3,16.5,16,16L16,16z"/>
	</g>
</g>
<g transform="rotate(288 450,300)">
	<g id="petal_4_">
		<path class="st1" d="M16,16c-2.7,3.1-6.8,0-5.4-3.3c0.1,0.8,0.8,1.1,1.5,0.9c0.8-0.2,1.8,0.6,1.8,1.3C14,16,15.1,16.6,16,16L16,16
			z"/>
		<path class="st0" d="M12.6,15.1l0.2,0.3l-0.4,0l-0.2,0.3l-0.1-0.4l-0.4-0.1l0.3-0.2l0-0.4l0.3,0.3l0.4-0.1L12.6,15.1z"/>
		<path class="st0" d="M16,16c-0.4,0.4-0.9,0.6-1.5,0.5c-0.7,0-1.3-0.4-1.8-0.9l-0.1,0.1c0.5,0.5,1.1,0.9,1.8,0.9
			C15.1,16.6,15.6,16.4,16,16L16,16z"/>
	</g>
</g>
</svg>
