<?xml version="1.0" encoding="utf-8"?>
<!-- Generator: Adobe Illustrator 24.2.1, SVG Export Plug-In . SVG Version: 6.00 Build 0)  -->
<svg version="1.1" id="레이어_1" xmlns="http://www.w3.org/2000/svg" xmlns:xlink="http://www.w3.org/1999/xlink" x="0px"
	 y="0px" viewBox="0 0 32 32" style="enable-background:new 0 0 32 32;" xml:space="preserve">
<style type="text/css">
	.st0{fill:#FFFFFF;}
	.st1{stroke:#000000;stroke-miterlimit:50;}
	.st2{stroke:#FFFFFF;stroke-width:0.5;stroke-miterlimit:50;}
	.st3{fill:#CD2E3A;}
	.st4{fill:#0047A0;}
</style>
<circle class="st0" cx="16" cy="16" r="16"/>
<g transform="rotate(-56.3099325)">
	<g id="b2">
		<path id="b" class="st1" d="M-7.8,10.4h5.7 M-7.8,11.8h5.7 M-7.8,13.2h5.7"/>
		<g>
			<path id="b_1_" class="st1" d="M-7.8,31.4h5.7 M-7.8,32.8h5.7 M-7.8,34.2h5.7"/>
		</g>
	</g>
	<path class="st2" d="M-4.8,30.3v4.8"/>
	<circle class="st3" cx="-4.8" cy="22.2" r="5.7"/>
	<path class="st4" d="M-4.8,16.5c-1.6,0-2.9,1.3-2.9,2.9s1.3,2.9,2.9,2.9s2.9,1.3,2.9,2.9c0,1.6-1.3,2.9-2.9,2.9
		c-3.2,0-5.7-2.6-5.7-5.7S-7.9,16.5-4.8,16.5z"/>
</g>
<g transform="rotate(-123.6900675)">
	<g>
		<g id="b2_1_">
			<path id="b_2_" class="st1" d="M-25.2-7.8l5.7,0 M-25.2-6.4l5.7,0 M-25.2-4.9l5.7,0"/>
			<g>
				<path id="b_3_" class="st1" d="M-25.2,13.2h5.7 M-25.2,14.6h5.7 M-25.2,16.1l5.7,0"/>
			</g>
		</g>
	</g>
	<path class="st2" d="M-22.3-7.1v1.4 M-22.3,12.2v1.7 M-22.3,15.3v1.4"/>
</g>
<text transform="matrix(1 0 0 1 960 540)" style="font-family:'AdobeMyungjoStd-Medium-KSCpc-EUC-H'; font-size:12px;">Flag_of_South_Korea</text>
</svg>
