<?xml version="1.0" encoding="utf-8"?>
<!-- Generator: Adobe Illustrator 24.2.1, SVG Export Plug-In . SVG Version: 6.00 Build 0)  -->
<svg version="1.1" id="레이어_1" xmlns="http://www.w3.org/2000/svg" xmlns:xlink="http://www.w3.org/1999/xlink" x="0px"
	 y="0px" viewBox="0 0 126 70" style="enable-background:new 0 0 126 70;" xml:space="preserve">
<style type="text/css">
	.st0{fill:#46ABAE;}
</style>
<g>
	<polygon class="st0" points="20,4 20,19.8 2,19.8 2,4 0.1,4 0.1,32 2,32 2,21.6 20,21.6 20,32 21.9,32 21.9,4 	"/>
	<path class="st0" d="M37.9,29.7c-1.1,0.6-2.3,0.9-3.7,0.9c-1.3,0-2.6-0.5-4-1.5l11.4-11.2l-0.2-0.3c-1.9-2.1-4.1-3.1-6.7-3.1
		c-2.6,0-4.8,0.9-6.6,2.6c-1.8,1.8-2.7,3.9-2.7,6.3c0,2.4,0.9,4.5,2.7,6.3c1.8,1.8,3.9,2.7,6.3,2.7h0.3c2.5,0,4.7-1,6.5-3l0.1-0.1
		v-3.2l-0.7,1C39.9,28.3,38.9,29.1,37.9,29.7z M34.3,16.3c1.7,0,3.2,0.5,4.6,1.6l-10,9.9c-1-1.3-1.6-2.8-1.6-4.5
		c0-1.8,0.7-3.5,2.1-4.9C30.8,17,32.4,16.3,34.3,16.3z"/>
	<path class="st0" d="M54.2,15.7c-1.1-0.8-2.3-1.2-3.5-1.2c-1.2,0-2.3,0.3-3.3,0.9c-0.6,0.3-1.1,0.7-1.5,1.2v-1.6h-1.9V32H46V20.7
		c0-1.2,0.4-2.2,1.4-3.1c0.9-0.9,1.9-1.3,3.1-1.3s2.3,0.5,3.3,1.5l0.6,0.6v-2.6L54.2,15.7z"/>
	<path class="st0" d="M65.7,24.1c-0.6-0.8-1.3-1.4-2.1-2c-0.8-0.5-1.6-0.9-2.3-1.4c-0.7-0.4-1.4-0.9-1.9-1.3
		c-0.5-0.4-0.7-0.9-0.7-1.4c0-0.5,0.2-0.9,0.6-1.2c0.4-0.4,0.9-0.5,1.4-0.5c1.1,0,1.9,0.5,2.6,1.6l0.7,1V16l-0.1-0.1
		c-0.8-0.9-1.9-1.4-3.1-1.4c-1.2,0-2.2,0.3-2.9,1c-0.8,0.7-1.2,1.5-1.2,2.5c0,0.9,0.3,1.8,0.9,2.5c0.6,0.7,1.3,1.2,2.1,1.7l2.3,1.4
		c0.7,0.4,1.4,1,1.9,1.6c0.5,0.6,0.7,1.3,0.7,2.2c0,0.9-0.4,1.6-1.2,2.3c-0.8,0.7-1.8,1.1-2.9,1.1c-1.9,0-3.2-0.9-4.1-2.8l-0.7-1.6
		v3.6l0,0.1c0.4,0.8,1.1,1.4,2,1.8c0.9,0.4,1.9,0.7,2.9,0.7c1.6,0,3-0.5,4.2-1.6c1.2-1.1,1.7-2.4,1.7-3.9
		C66.5,25.8,66.2,24.9,65.7,24.1z"/>
	<path class="st0" d="M75.5,30.5c-1.3,0-2.4-0.4-3.3-1.3c-0.9-0.9-1.4-2-1.4-3.4v-9h5v-1.8h-5V8.3h-1.9v17.4c0,1.9,0.7,3.5,1.9,4.7
		c1.3,1.2,2.8,1.8,4.7,1.8h0.4v-1.8H75.5z"/>
	<path class="st0" d="M92.5,17.1c-1.8-1.8-3.9-2.6-6.4-2.6c-2.5,0-4.6,0.9-6.4,2.6c-1.8,1.8-2.7,3.9-2.7,6.3c0,2.4,0.9,4.5,2.6,6.3
		c1.7,1.8,3.8,2.7,6.3,2.7h0.3c2.4,0,4.6-0.9,6.3-2.7c1.7-1.8,2.6-3.9,2.6-6.3C95.2,21,94.3,18.9,92.5,17.1z M93.2,23.5
		c0,1.9-0.7,3.6-2.1,5c-1.4,1.4-3.1,2.1-5,2.1c-2,0-3.6-0.7-5-2.1c-1.4-1.4-2.1-3.1-2.1-5c0-1.9,0.7-3.6,2.1-5.1
		c1.4-1.4,3.1-2.2,5-2.2c1.9,0,3.6,0.7,5,2.1C92.5,19.9,93.2,21.6,93.2,23.5z"/>
	<path class="st0" d="M108,15.7c-1.1-0.8-2.3-1.2-3.5-1.2c-1.2,0-2.3,0.3-3.3,0.9c-0.6,0.3-1.1,0.7-1.5,1.2v-1.6h-1.9V32h1.9V20.7
		c0-1.2,0.4-2.2,1.4-3.1c0.9-0.9,1.9-1.3,3.1-1.3s2.3,0.5,3.3,1.5l0.6,0.6v-2.6L108,15.7z"/>
	<path class="st0" d="M123.7,14.9v9.9c0,1.6-0.6,2.9-1.7,4.1c-1.2,1.2-2.5,1.7-4.1,1.7c-1.6,0-2.9-0.6-4.1-1.7
		c-1.2-1.2-1.7-2.5-1.7-4.1v-9.9h-1.9v9.9c0,2.1,0.8,3.9,2.3,5.4c1.5,1.5,3.3,2.2,5.4,2.2c2.6,0,4.5-0.9,5.8-2.6v1.4
		c0,1.7-0.6,3.2-1.9,4.4c-1.2,1.2-2.7,1.8-4.4,1.8c-1.1,0-2.2-0.3-3.3-1c-1-0.7-1.9-1.5-2.5-2.7l-0.7-1.1l-0.1,3.3l0.1,0.1
		c1.6,2.1,3.8,3.2,6.5,3.2c2.3,0,4.2-0.8,5.8-2.4c1.6-1.6,2.4-3.5,2.4-5.8V14.9H123.7z"/>
	<g>
		<rect x="0" y="53.4" class="st0" width="1.4" height="12.5"/>
		<path class="st0" d="M0.7,49.1c-0.7,0-1.1,0.4-1.1,1c0,0.6,0.4,1,1.1,1c0.7,0,1.1-0.4,1.1-1C1.8,49.4,1.4,49.1,0.7,49.1z"/>
	</g>
	<path class="st0" d="M14.2,54.7c-1.1-1.1-2.4-1.6-4-1.6c-1.9,0-3.4,0.7-4.4,2v-1.7H4.4V66h1.4v-7.3c0-1.2,0.4-2.1,1.3-3
		c0.9-0.9,1.9-1.3,3-1.3c1.2,0,2.1,0.4,2.9,1.3c0.8,0.9,1.2,1.9,1.2,3V66h1.4v-7.3C15.8,57.2,15.2,55.8,14.2,54.7z"/>
	<polygon class="st0" points="35.9,46.7 35.9,45.4 28.1,45.4 28.1,66 35.9,66 35.9,64.6 29.6,64.6 29.6,58.4 34.8,58.4 34.8,57.1 
		29.6,57.1 29.6,46.7 	"/>
	<path class="st0" d="M48.7,53.4v2.2c-0.4-0.6-1-1.1-1.8-1.6c-1.1-0.6-2.2-0.9-3.4-0.9c-1.8,0-3.4,0.7-4.7,1.9
		c-1.3,1.3-1.9,2.8-1.9,4.6c0,1.8,0.7,3.4,1.9,4.6c1.3,1.3,2.9,1.9,4.7,1.9c1.2,0,2.3-0.3,3.3-0.9c0.7-0.4,1.3-1,1.8-1.6V66h1.4
		V53.4H48.7z M48.7,59.7c0,1.4-0.5,2.7-1.5,3.7c-1,1-2.2,1.6-3.7,1.6c-1.4,0-2.6-0.5-3.7-1.6c-1-1-1.6-2.3-1.6-3.7
		c0-1.4,0.5-2.7,1.6-3.7c1-1.1,2.3-1.6,3.7-1.6c1.4,0,2.6,0.5,3.7,1.6C48.2,57,48.7,58.3,48.7,59.7z"/>
	<path class="st0" d="M59.3,60.1c-0.4-0.6-0.9-1.1-1.5-1.4c-0.6-0.4-1.1-0.7-1.7-1c-0.5-0.3-1-0.6-1.4-1c-0.3-0.3-0.5-0.7-0.5-1
		c0-0.4,0.1-0.7,0.4-0.9c0.3-0.3,0.6-0.4,1-0.4c0.8,0,1.4,0.4,1.9,1.2l0.5,0.8v-2.1L58,54.1c-0.6-0.7-1.4-1-2.3-1
		c-0.9,0-1.6,0.2-2.1,0.7c-0.6,0.5-0.9,1.1-0.9,1.8c0,0.7,0.2,1.3,0.7,1.8c0.4,0.5,0.9,0.9,1.5,1.3l1.7,1c0.5,0.3,1,0.7,1.4,1.2
		c0.4,0.4,0.5,1,0.5,1.6c0,0.6-0.3,1.2-0.9,1.7c-0.6,0.5-1.3,0.8-2.1,0.8c-1.4,0-2.4-0.7-3-2.1L52,61.7v2.6l0,0.1
		c0.3,0.6,0.8,1,1.5,1.4c0.6,0.3,1.4,0.5,2.1,0.5c1.2,0,2.2-0.4,3.1-1.2c0.8-0.8,1.3-1.8,1.3-2.9C59.9,61.4,59.7,60.7,59.3,60.1z"/>
	<path class="st0" d="M66.5,64.8c-1,0-1.8-0.3-2.4-1c-0.7-0.7-1-1.5-1-2.5v-6.6h3.7v-1.3H63v-4.9h-1.4v12.8c0,1.4,0.5,2.5,1.4,3.4
		c0.9,0.9,2.1,1.3,3.4,1.3h0.3v-1.3H66.5z"/>
	<path class="st0" d="M87.1,44.6L76.7,66h1.4l3.7-7.6h10.3L96,66h1.6L87.1,44.6z M91.6,57h-9.1l4.5-9.3L91.6,57z"/>
	<path class="st0" d="M105.8,60.1c-0.4-0.6-0.9-1.1-1.5-1.4c-0.6-0.4-1.1-0.7-1.7-1c-0.5-0.3-1-0.6-1.4-1c-0.3-0.3-0.5-0.7-0.5-1
		c0-0.4,0.1-0.7,0.4-0.9c0.3-0.3,0.6-0.4,1-0.4c0.8,0,1.4,0.4,1.9,1.2l0.5,0.8v-2.1l-0.1-0.1c-0.6-0.7-1.4-1-2.3-1
		c-0.9,0-1.6,0.2-2.1,0.7c-0.6,0.5-0.9,1.1-0.9,1.8c0,0.7,0.2,1.3,0.7,1.8c0.4,0.5,0.9,0.9,1.5,1.3l1.7,1c0.5,0.3,1,0.7,1.4,1.2
		c0.4,0.4,0.5,1,0.5,1.6c0,0.6-0.3,1.2-0.9,1.7c-0.6,0.5-1.3,0.8-2.1,0.8c-1.4,0-2.4-0.7-3-2.1l-0.5-1.2v2.6l0,0.1
		c0.3,0.6,0.8,1,1.5,1.4c0.6,0.3,1.4,0.5,2.1,0.5c1.2,0,2.2-0.4,3.1-1.2c0.8-0.8,1.3-1.8,1.3-2.9C106.4,61.4,106.2,60.7,105.8,60.1z
		"/>
	<g>
		<path class="st0" d="M109.5,49.1c-0.7,0-1.1,0.4-1.1,1c0,0.6,0.4,1,1.1,1c0.7,0,1.1-0.4,1.1-1C110.5,49.4,110.1,49.1,109.5,49.1z"
			/>
		<rect x="108.8" y="53.4" class="st0" width="1.4" height="12.5"/>
	</g>
	<path class="st0" d="M124.3,53.4v2.2c-0.4-0.6-1-1.1-1.8-1.6c-1.1-0.6-2.2-0.9-3.4-0.9c-1.8,0-3.4,0.7-4.7,1.9
		c-1.3,1.3-1.9,2.8-1.9,4.6c0,1.8,0.7,3.4,1.9,4.6c1.3,1.3,2.9,1.9,4.7,1.9c1.2,0,2.3-0.3,3.3-0.9c0.7-0.4,1.3-1,1.8-1.6V66h1.4
		V53.4H124.3z M124.3,59.7c0,1.4-0.5,2.7-1.5,3.7c-1,1-2.2,1.6-3.7,1.6c-1.4,0-2.6-0.5-3.7-1.6c-1-1-1.6-2.3-1.6-3.7
		c0-1.4,0.5-2.7,1.6-3.7c1-1.1,2.3-1.6,3.7-1.6s2.6,0.5,3.7,1.6C123.8,57,124.3,58.3,124.3,59.7z"/>
</g>
</svg>
